<mxfile host="drawio-plugin" modified="2021-10-19T17:04:07.040Z" agent="5.0 (X11; Linux x86_64) AppleWebKit/537.36 (KHTML, like Gecko) Chrome/89.0.4389.114 Safari/537.36" etag="rIQbuO7KxyOELa-5qYF0" version="14.7.4" type="embed"><diagram id="dGVjPO9XpkJXmDlkZwwz" name="Page-1"><mxGraphModel dx="1002" dy="530" grid="1" gridSize="10" guides="1" tooltips="1" connect="1" arrows="1" fold="1" page="1" pageScale="1" pageWidth="827" pageHeight="1169" math="0" shadow="0"><root><mxCell id="0"/><mxCell id="1" parent="0"/><mxCell id="G5ztM_QkkrNoU4VwedTq-1" value="SiteStyle" style="swimlane;fontStyle=1;align=center;verticalAlign=top;childLayout=stackLayout;horizontal=1;startSize=26;horizontalStack=0;resizeParent=1;resizeParentMax=0;resizeLast=0;collapsible=1;marginBottom=0;" parent="1" vertex="1"><mxGeometry x="400" y="250" width="230" height="118" as="geometry"/></mxCell><mxCell id="G5ztM_QkkrNoU4VwedTq-2" value="-main_text: string&#10;-background_color: string" style="text;strokeColor=none;fillColor=none;align=left;verticalAlign=top;spacingLeft=4;spacingRight=4;overflow=hidden;rotatable=0;points=[[0,0.5],[1,0.5]];portConstraint=eastwest;" parent="G5ztM_QkkrNoU4VwedTq-1" vertex="1"><mxGeometry y="26" width="230" height="34" as="geometry"/></mxCell><mxCell id="G5ztM_QkkrNoU4VwedTq-3" value="" style="line;strokeWidth=1;fillColor=none;align=left;verticalAlign=middle;spacingTop=-1;spacingLeft=3;spacingRight=3;rotatable=0;labelPosition=right;points=[];portConstraint=eastwest;" parent="G5ztM_QkkrNoU4VwedTq-1" vertex="1"><mxGeometry y="60" width="230" height="28" as="geometry"/></mxCell><mxCell id="G5ztM_QkkrNoU4VwedTq-4" value="+ getInstance(static): SiteStyle" style="text;strokeColor=none;fillColor=none;align=left;verticalAlign=top;spacingLeft=4;spacingRight=4;overflow=hidden;rotatable=0;points=[[0,0.5],[1,0.5]];portConstraint=eastwest;" parent="G5ztM_QkkrNoU4VwedTq-1" vertex="1"><mxGeometry y="88" width="230" height="30" as="geometry"/></mxCell><mxCell id="G5ztM_QkkrNoU4VwedTq-6" value="Client&lt;br&gt;index.php&lt;br&gt;" style="html=1;" parent="1" vertex="1"><mxGeometry x="70" y="300" width="110" height="50" as="geometry"/></mxCell><mxCell id="G5ztM_QkkrNoU4VwedTq-7" value="" style="html=1;verticalAlign=bottom;endArrow=block;rounded=0;edgeStyle=orthogonalEdgeStyle;entryX=0;entryY=0.5;entryDx=0;entryDy=0;" parent="1" source="G5ztM_QkkrNoU4VwedTq-6" edge="1"><mxGeometry width="80" relative="1" as="geometry"><mxPoint x="180" y="317" as="sourcePoint"/><mxPoint x="390" y="325" as="targetPoint"/></mxGeometry></mxCell></root></mxGraphModel></diagram></mxfile>